<?xml version="1.0" encoding="UTF-8"?>
<!-- Generator: visioncortex VTracer 0.6.12 -->
<svg version="1.1" xmlns="http://www.w3.org/2000/svg" width="737" height="1064">
<path d="M0 0 C12.572 -0.07 25.144 -0.123 37.716 -0.155 C43.557 -0.171 49.398 -0.192 55.239 -0.226 C107.329 -0.525 164.32 0.342 205 38 C216.985 50.568 225.121 66.502 229.188 83.312 C229.343 83.951 229.498 84.589 229.657 85.247 C232.683 98.686 233.288 111.886 233.227 125.594 C233.226 127.409 233.227 129.224 233.228 131.038 C233.229 135.918 233.217 140.797 233.203 145.676 C233.19 150.793 233.189 155.91 233.187 161.027 C233.181 170.695 233.164 180.363 233.144 190.031 C233.122 201.047 233.111 212.062 233.101 223.078 C233.08 245.719 233.044 268.359 233 291 C222.77 291.33 212.54 291.66 202 292 C203.268 292.629 203.268 292.629 209.688 295.812 C234.941 308.887 250.902 332.628 259.489 359.253 C275.537 411.892 275.668 480.33 250 530 C245.085 538.933 239.1 546.675 232 554 C231.462 554.611 230.925 555.222 230.371 555.852 C213.688 574.165 184.87 582.714 160.945 584.121 C155.755 584.327 150.568 584.337 145.375 584.312 C144.585 584.311 143.795 584.309 142.981 584.307 C114.954 584.198 88.611 579.618 67.518 559.539 C60.485 552.411 54.949 544.208 51 535 C49.02 535.33 47.04 535.66 45 536 C45.115 536.256 45.115 536.256 45.699 537.55 C46.8 539.992 47.9 542.433 49 544.875 C49.362 545.678 49.724 546.481 50.098 547.309 C50.89 549.068 51.67 550.832 52.44 552.601 C53.557 555.035 54.711 557.343 55.983 559.69 C62.629 572.452 63.134 583.887 63 598.07 C63.008 600.331 63.019 602.593 63.033 604.854 C63.061 610.743 63.042 616.63 63.013 622.519 C62.991 628.553 63.015 634.587 63.035 640.621 C63.067 652.414 63.05 664.207 63 676 C63.966 676.27 64.932 676.539 65.927 676.817 C67.191 677.174 68.456 677.53 69.759 677.897 C71.013 678.25 72.268 678.602 73.561 678.965 C93.43 684.945 106.434 700.376 116 718 C117.65 717.67 119.3 717.34 121 717 C120.728 716.382 120.457 715.764 120.177 715.127 C118.907 712.231 117.641 709.334 116.375 706.438 C115.948 705.466 115.522 704.495 115.082 703.494 C114.209 701.495 113.349 699.489 112.501 697.479 C111.527 695.221 110.508 692.98 109.438 690.765 C104.66 680.251 104.188 671.063 104.379 659.633 C104.388 657.818 104.394 656.004 104.397 654.189 C104.414 649.464 104.468 644.741 104.53 640.016 C104.574 636.137 104.591 632.258 104.607 628.379 C104.627 623.755 104.657 619.132 104.691 614.508 C104.698 613.625 104.704 612.743 104.711 611.833 C104.732 609.356 104.76 606.88 104.791 604.403 C104.797 603.663 104.803 602.924 104.809 602.162 C104.885 597.115 104.885 597.115 106 596 C136.03 596 166.06 596 197 596 C197 708.86 197 821.72 197 938 C166.64 938 136.28 938 105 938 C104.67 931.73 104.34 925.46 104 919 C102.969 919.99 101.938 920.98 100.875 922 C79.192 940.764 49.586 944.269 22 943 C-5.607 940.911 -28.36 930.771 -46.688 909.875 C-75.132 873.458 -76.202 819.09 -71.402 775.2 C-68.855 754.938 -64.042 726.074 -48.838 710.833 C-40.977 702.707 -40.724 695.596 -40.88 684.96 C-40.872 683.243 -40.86 681.526 -40.844 679.809 C-40.813 675.113 -40.837 670.418 -40.871 665.722 C-40.897 660.65 -40.872 655.578 -40.853 650.506 C-40.827 641.726 -40.834 632.946 -40.863 624.166 C-40.906 611.471 -40.898 598.777 -40.879 586.083 C-40.849 565.485 -40.859 544.888 -40.894 524.29 C-40.928 504.285 -40.943 484.281 -40.933 464.276 C-40.932 463.042 -40.932 461.808 -40.931 460.537 C-40.928 454.348 -40.924 448.158 -40.92 441.969 C-40.889 390.646 -40.923 339.323 -41 288 C-37.04 287.67 -33.08 287.34 -29 287 C-30.004 286.539 -31.008 286.077 -32.043 285.602 C-53.581 275.439 -69.208 260.81 -77.648 238.051 C-88.101 207.985 -87.79 171.181 -74.25 142.16 C-63.439 120.137 -45.214 107.206 -22.5 99.188 C-9.096 94.979 4.853 92.878 18.891 92.797 C19.709 92.79 20.528 92.783 21.371 92.775 C55.61 92.547 55.61 92.547 71 96 C71.914 96.199 72.828 96.397 73.77 96.602 C93.768 101.064 111.442 108.538 129 119 C129.191 109.709 127.041 103.313 121.074 96.133 C101.966 76.485 69.672 74.572 44.01 74.036 C13.649 73.672 -16.127 79.477 -43.93 91.715 C-47 93 -47 93 -49 93 C-47.747 88.962 -46.259 85.35 -44.234 81.641 C-43.681 80.621 -43.128 79.601 -42.559 78.551 C-41.962 77.462 -41.365 76.372 -40.75 75.25 C-39.799 73.5 -38.849 71.75 -37.898 70 C-36.915 68.19 -35.929 66.381 -34.943 64.572 C-31.941 59.06 -28.972 53.529 -26 48 C-24.845 45.855 -23.69 43.711 -22.535 41.566 C-20.404 37.608 -18.273 33.649 -16.145 29.69 C-15.191 27.916 -14.237 26.143 -13.283 24.369 C-12.09 22.151 -10.897 19.932 -9.705 17.713 C-9.162 16.703 -8.618 15.693 -8.059 14.652 C-7.587 13.776 -7.116 12.899 -6.631 11.996 C-5.233 9.427 -3.819 6.869 -2.398 4.313 C-2.173 3.909 -2.173 3.909 -1.036 1.863 C-0.694 1.248 -0.352 0.634 0 0 Z M19.875 181.75 C18.511 185.258 18.916 187.429 20 191 C38.61 205.893 81.698 200.097 104.402 198.406 C122.255 196.39 122.255 196.39 129 191 C130.125 187.5 130.125 187.5 130 184 C127.254 179.701 122.76 178.236 118 177 C105.084 174.362 91.942 174.695 78.822 174.739 C75.074 174.75 71.327 174.739 67.58 174.727 C28.431 174.704 28.431 174.704 19.875 181.75 Z M139 220 C138.805 220.517 138.61 221.034 138.408 221.566 C128.257 248.224 116.359 273.518 89 286 C80.218 289.522 71.246 292.047 62 294 C62 299.61 62 305.22 62 311 C63.031 310.196 64.062 309.391 65.125 308.562 C83.109 295.193 101.271 287.964 123.48 284.387 C124.304 284.252 125.128 284.117 125.977 283.978 C127.984 283.65 129.992 283.324 132 283 C135.021 270.672 138.023 258.339 141 246 C141.154 245.363 141.154 245.363 141.933 242.137 C142.674 239.052 143.403 235.964 144.125 232.875 C144.337 231.996 144.548 231.116 144.766 230.21 C146.116 224.348 146.116 224.348 145 221 C143.02 220.67 141.04 220.34 139 220 Z M93.68 364.152 C78.421 380.937 72.997 398.27 73.83 420.541 C75.384 442.968 92.196 463.851 105.887 480.527 C116.402 493.373 126.196 506.781 133 522 C137.328 521.075 140.726 518.954 144.438 516.625 C145.143 516.183 145.849 515.741 146.576 515.286 C153.6 510.783 159.789 505.545 166 500 C166.678 499.432 167.356 498.863 168.055 498.277 C179.127 488.987 189.118 478.375 198 467 C198.673 466.206 199.346 465.412 200.039 464.594 C212.665 449.579 221.763 430.72 221.25 410.754 C219.48 391.259 211.954 374.79 197 362 C169.386 342.016 119.751 339.833 93.68 364.152 Z M21 779 C11.847 790.428 11.801 805.026 13 819 C14.476 828.997 18.915 836.762 26.562 843.25 C40.274 852.946 61.308 852.596 77.305 850.539 C86.624 848.806 93.691 845.563 99.375 837.812 C104.695 828.755 105.484 819.381 105.375 809.062 C105.387 807.973 105.398 806.883 105.41 805.76 C105.366 793.357 103.086 782.807 94.617 773.477 C84.402 764.652 67.057 765.158 54.47 765.815 C42.016 766.746 30.02 769.98 21 779 Z " fill="#15AC87" transform="translate(99,107)"/>
<path d="M0 0 C2.169 0.011 4.338 0.018 6.506 0.021 C11.066 0.038 15.623 0.088 20.182 0.163 C25.945 0.258 31.706 0.298 37.469 0.318 C88.013 0.499 144.291 2.453 183.238 39.27 C207.574 64.752 211.679 99.008 211.602 132.806 C211.602 134.552 211.602 136.297 211.602 138.043 C211.603 142.743 211.597 147.442 211.59 152.142 C211.583 157.068 211.583 161.994 211.582 166.92 C211.579 176.23 211.57 185.541 211.56 194.851 C211.547 207.445 211.542 220.038 211.536 232.632 C211.526 252.449 211.506 272.265 211.488 292.082 C177.498 292.082 143.508 292.082 108.488 292.082 C109.1 287.188 109.688 282.758 110.779 278.021 C111.036 276.896 111.293 275.772 111.558 274.613 C111.834 273.424 112.11 272.234 112.395 271.008 C112.679 269.766 112.964 268.524 113.257 267.244 C114.01 263.963 114.767 260.682 115.525 257.401 C116.594 252.773 117.656 248.143 118.719 243.513 C119.284 241.053 119.851 238.593 120.419 236.134 C120.676 235.019 120.933 233.904 121.197 232.755 C121.423 231.778 121.649 230.8 121.881 229.793 C122.455 227.229 122.984 224.661 123.488 222.082 C121.508 221.752 119.528 221.422 117.488 221.082 C117.41 221.377 117.41 221.377 117.012 222.872 C110.456 246.198 96.903 270.844 75.543 283.461 C58.264 292.631 40.408 297.169 20.816 297.285 C20.418 297.289 20.418 297.289 18.403 297.306 C15.848 297.324 13.293 297.33 10.738 297.332 C9.865 297.333 8.992 297.333 8.093 297.334 C-4.979 297.318 -17.707 296.956 -30.512 294.082 C-31.276 293.916 -32.04 293.749 -32.828 293.578 C-50.102 289.679 -65.101 282.668 -78.512 271.082 C-78.848 270.802 -78.848 270.802 -80.551 269.383 C-97.544 253.981 -104.925 228.108 -106.146 206.004 C-107.352 176.905 -103.581 146.366 -83.262 123.832 C-65.008 104.386 -37.536 95.335 -11.314 93.967 C-8.943 93.902 -6.574 93.866 -4.203 93.844 C-3.327 93.834 -2.452 93.824 -1.549 93.814 C17.435 93.646 35.93 93.561 54.488 98.082 C55.353 98.291 56.217 98.5 57.108 98.715 C74.755 103.161 92.167 110.217 107.488 120.082 C107.263 110.461 104.508 103.012 97.926 95.895 C76.254 75.84 40.608 74.127 12.594 75.192 C-14.564 76.57 -42.059 81.27 -66.637 93.443 C-68.512 94.082 -68.512 94.082 -71.512 93.082 C-54.894 61.688 -54.894 61.688 -46.985 47.278 C-44.177 42.156 -41.401 37.018 -38.652 31.863 C-38.319 31.239 -37.986 30.615 -37.643 29.972 C-36.012 26.915 -34.385 23.857 -32.761 20.796 C-32.464 20.237 -32.464 20.237 -30.957 17.41 C-30.436 16.43 -29.916 15.449 -29.379 14.438 C-29.071 13.885 -29.071 13.885 -27.512 11.082 C-27.25 10.23 -26.988 9.378 -26.718 8.5 C-22.269 -2.846 -10.262 -0.216 0 0 Z M-1.184 182.465 C-2.512 184.082 -2.512 184.082 -3.012 187.52 C-2.512 191.082 -2.512 191.082 -0.637 193.332 C24.446 207.379 69.927 202.347 97.254 197.094 C101.829 195.663 105.433 193.729 108.051 189.645 C108.488 187.082 108.488 187.082 107.676 184.52 C100.744 176.795 88.8 176.424 79.07 175.897 C75.626 175.821 72.187 175.804 68.742 175.816 C67.488 175.814 66.234 175.813 64.942 175.811 C62.311 175.809 59.68 175.813 57.049 175.821 C53.064 175.832 49.08 175.821 45.096 175.809 C6.89 175.787 6.89 175.787 -1.184 182.465 Z " fill="#15AC87" transform="translate(498.51171875,393.91796875)"/>
<path d="M0 0 C83.16 0 166.32 0 252 0 C252 32.67 252 65.34 252 99 C201.51 99 151.02 99 99 99 C99 106.59 99 114.18 99 122 C149.49 122 199.98 122 252 122 C252 154.67 252 187.34 252 221 C201.51 221 151.02 221 99 221 C99 228.59 99 236.18 99 244 C149.49 244 199.98 244 252 244 C252 276.67 252 309.34 252 343 C243.42 343 234.84 343 226 343 C227.65 340.03 229.3 337.06 231 334 C231.594 330.672 231.594 330.672 231.5 327.75 C231.495 327.263 231.495 327.263 231.469 324.797 C230.927 321.567 229.924 319.635 228 317 C223.869 314.465 219.649 313.209 215 312 C215.33 311.34 215.66 310.68 216 310 C217.609 309.527 219.239 309.12 220.875 308.75 C224.596 307.685 225.71 307.365 228.188 304.25 C229.165 300.34 229.079 297.883 228 294 C226.109 291.682 224.662 290.331 222 289 C218.94 288.843 215.898 288.741 212.836 288.684 C212.032 288.665 211.228 288.646 210.4 288.627 C207.392 288.559 204.383 288.499 201.375 288.438 C198.013 288.365 198.013 288.365 181 288 C181 306.15 181 324.3 181 343 C176.05 343 171.1 343 166 343 C166 342.34 166 341.68 166 341 C166.784 340.237 167.567 339.474 168.375 338.688 C173.534 333.405 173.325 328.126 173.414 321.105 C173.433 320.158 173.453 319.211 173.473 318.235 C173.532 315.219 173.579 312.203 173.625 309.188 C173.663 307.139 173.702 305.09 173.742 303.041 C173.838 298.027 173.922 293.014 174 288 C169.05 288 164.1 288 159 288 C159.008 288.532 159.008 288.532 159.048 291.225 C159.102 295.186 159.136 299.146 159.165 303.106 C159.18 304.818 159.2 306.53 159.226 308.242 C159.263 310.707 159.28 313.171 159.293 315.637 C159.308 316.398 159.324 317.16 159.34 317.945 C159.341 322.461 158.923 325.478 156 329 C151.983 330.19 149.935 330.447 146.125 328.625 C144 327 144 327 143 326 C142.911 323.188 142.885 320.401 142.902 317.59 C142.903 317.169 142.903 317.169 142.907 315.038 C142.912 312.338 142.925 309.638 142.938 306.938 C142.943 305.111 142.947 303.285 142.951 301.459 C142.962 296.973 142.979 292.486 143 288 C137.72 288 132.44 288 127 288 C127.069 293.693 127.157 299.385 127.262 305.078 C127.296 307.011 127.324 308.945 127.346 310.879 C127.38 313.67 127.433 316.46 127.488 319.25 C127.495 320.106 127.501 320.961 127.508 321.843 C127.672 328.668 128.872 335.294 133.688 340.5 C134.451 341.325 135.214 342.15 136 343 C131.05 343 126.1 343 121 343 C121 338.71 121 334.42 121 330 C112.42 330 103.84 330 95 330 C95 316.14 95 302.28 95 288 C89.72 288 84.44 288 79 288 C79 306.15 79 324.3 79 343 C74.38 343 69.76 343 65 343 C65.825 342.257 66.65 341.515 67.5 340.75 C70 338 70 338 70 334 C67.812 332.078 67.812 332.078 65 330.25 C64.072 329.636 63.144 329.023 62.188 328.391 C61.466 327.932 60.744 327.473 60 327 C59.216 327.495 58.433 327.99 57.625 328.5 C52.079 330.795 46.675 331.081 41.062 328.812 C37.781 325.929 36.204 323.856 35.715 319.406 C35.422 309.948 35.422 309.948 39 306 C42.984 302.39 47.166 302.645 52.281 302.602 C55 303 55 303 60 306 C61.815 304.68 61.815 304.68 71 298 C68.364 292.728 65.325 290.949 59.938 288.75 C51.577 286.692 41.681 286.898 34 291 C27.043 295.696 23.611 301.166 21 309 C20.197 319.976 20.861 328.219 28.062 336.875 C29.983 338.984 31.98 340.98 34 343 C22.78 343 11.56 343 0 343 C0 229.81 0 116.62 0 0 Z " fill="#17AD88" transform="translate(330,702)"/>
<path d="M0 0 C33.66 0 67.32 0 102 0 C102 126.39 102 252.78 102 383 C68.34 383 34.68 383 0 383 C0 256.61 0 130.22 0 0 Z " fill="#13AC86" transform="translate(367,15)"/>
<path d="M0 0 C30.03 0 60.06 0 91 0 C91 112.53 91 225.06 91 341 C60.97 341 30.94 341 0 341 C0 228.47 0 115.94 0 0 Z " fill="#13AC86" transform="translate(617,704)"/>
<path d="M0 0 C0.33 0.33 0.33 0.33 2 2 C1.227 2.17 0.453 2.34 -0.344 2.516 C-6.699 3.994 -12.4 5.611 -18 9 C-18.887 9.536 -19.774 10.073 -20.688 10.625 C-26.292 16.381 -28.331 22.32 -28.562 30.312 C-27.6 54.907 -10.286 74.841 4 93.5 C39.041 139.3 39.041 139.3 36 169 C33.46 182.585 26.647 193.337 17 203 C16.385 203.626 15.77 204.253 15.137 204.898 C8.812 210.884 0.276 216.241 -8 219 C-9.187 243.884 -0.71 268.231 7.715 291.309 C9 295 9 295 9 297 C0.217 293.421 -6.984 283.115 -13 276 C-13.82 275.058 -14.64 274.115 -15.484 273.145 C-22.457 265.087 -28.804 256.665 -35 248 C-35.397 248.407 -35.794 248.815 -36.202 249.234 C-44.119 257.332 -52.064 265.019 -61 272 C-62.21 272.986 -63.419 273.974 -64.625 274.965 C-80.133 287.651 -80.133 287.651 -87 291 C-87.66 290.67 -88.32 290.34 -89 290 C-88.455 289.042 -87.909 288.084 -87.348 287.098 C-85.305 283.499 -83.284 279.889 -81.27 276.274 C-80.463 274.829 -79.652 273.385 -78.835 271.944 C-73.924 263.251 -69.78 254.422 -66.125 245.125 C-65.756 244.186 -65.386 243.248 -65.006 242.281 C-62.585 235.95 -60.666 229.568 -59 223 C-59.757 222.852 -60.514 222.704 -61.293 222.552 C-80.364 218.663 -97.919 207.109 -108.973 191.152 C-118.15 176.363 -120.271 160.549 -117.41 143.48 C-116.514 140.462 -115.404 137.819 -114 135 C-113.699 134.395 -113.398 133.791 -113.088 133.167 C-108.082 123.299 -102.056 114.499 -95 106 C-94.559 105.468 -94.118 104.936 -93.664 104.388 C-90.02 100.014 -86.313 95.694 -82.604 91.375 C-45.689 48.328 -45.689 48.328 -47.125 24.812 C-48.117 17.849 -50.481 12.971 -55.812 8.312 C-61.842 3.902 -68.903 2.029 -76 0 C-73.142 -2.858 -69.765 -3.206 -65.938 -4.062 C-65.16 -4.239 -64.383 -4.415 -63.583 -4.597 C-42.31 -9.316 -20.434 -7.431 0 0 Z " fill="#FCC804" transform="translate(647,98)"/>
<path d="M0 0 C5.754 3.479 9.374 8.674 11.125 15.125 C14.756 39.935 -8.195 67.768 -21.518 86.483 C-28.882 96.86 -35.814 107.587 -40.438 119.5 C-40.756 120.275 -41.074 121.049 -41.402 121.848 C-46.731 137.343 -44.484 156.546 -37.738 171.223 C-36.438 174.5 -36.438 174.5 -37.438 177.5 C-59.352 155.072 -71.025 127.495 -71.688 96.062 C-71.211 74.495 -66.172 54.27 -55.438 35.5 C-54.895 34.531 -54.352 33.561 -53.793 32.562 C-46.009 19.533 -34.378 4.867 -19.922 -0.875 C-13.427 -2.509 -6.228 -2.673 0 0 Z " fill="#EB5999" transform="translate(562.4375,111.5)"/>
<path d="M0 0 C21.481 19.972 33.058 49.478 34.223 78.504 C35.024 110.309 24.749 139.101 3.121 162.641 C0.555 165.268 -2.091 167.575 -5 169.812 C-2.834 163.202 -0.502 156.668 1.914 150.145 C7.702 132.385 3.861 113.227 -4.234 96.965 C-8.636 88.526 -13.769 80.482 -18.753 72.38 C-27.213 58.627 -35.023 44.837 -41 29.812 C-41.361 28.924 -41.722 28.036 -42.094 27.121 C-44.992 18.976 -46.022 8.3 -42.438 0.25 C-39.12 -5.074 -34.847 -8.964 -28.75 -10.688 C-16.928 -12.641 -8.566 -7.379 0 0 Z " fill="#EB5899" transform="translate(689,123.1875)"/>
<path d="M0 0 C10.836 1.731 19.175 8.765 26 17 C35.866 30.816 39.5 46.746 37.375 63.562 C33.051 87.059 18.78 106.457 0.691 121.562 C-0.962 122.968 -2.487 124.446 -4 126 C-4.66 125.67 -5.32 125.34 -6 125 C-5.478 124.441 -4.956 123.881 -4.418 123.305 C2.131 116.171 8.139 108.703 14 101 C14.337 100.561 14.337 100.561 16.043 98.34 C28.795 81.028 33.427 60.901 30.562 39.773 C27.174 25.413 19.228 13.144 7 5 C4.696 3.593 2.375 2.286 0 1 C0 0.67 0 0.34 0 0 Z " fill="#3FBB9C" transform="translate(277,465)"/>
<path d="M0 0 C1.446 2.893 0.432 4.475 -0.438 7.562 C-2.993 18.135 -3.196 29.471 -0.34 40.02 C0.052 42.301 -0.298 43.815 -1 46 C-1.819 44.274 -2.63 42.544 -3.438 40.812 C-3.89 39.85 -4.342 38.887 -4.809 37.895 C-8.995 27.723 -7.455 16.965 -4.168 6.777 C-3.057 4.135 -1.832 2.189 0 0 Z " fill="#45BD9F" transform="translate(189,496)"/>
<path d="M0 0 C0.373 0.002 0.373 0.002 2.26 0.012 C2.631 0.01 2.631 0.01 4.508 0 C10.069 0.01 10.069 0.01 12.322 1.137 C12.322 2.457 12.322 3.777 12.322 5.137 C9.134 6.731 5.693 6.238 2.197 6.199 C1.443 6.195 0.689 6.19 -0.088 6.186 C-1.951 6.174 -3.814 6.156 -5.678 6.137 C-6.06 4.481 -6.392 2.812 -6.678 1.137 C-4.866 -0.675 -2.408 0.004 0 0 Z " fill="#58C4A9" transform="translate(533.677734375,1025.86328125)"/>
<path d="M0 0 C1.163 -0.014 2.325 -0.028 3.523 -0.043 C6.625 0.188 6.625 0.188 9.625 2.188 C9.625 3.178 9.625 4.168 9.625 5.188 C6.203 6.328 3.538 6.286 -0.062 6.25 C-0.652 6.245 -0.652 6.245 -3.637 6.223 C-4.54 6.211 -5.444 6.199 -6.375 6.188 C-6.757 4.531 -7.089 2.863 -7.375 1.188 C-5.511 -0.677 -2.493 0.014 0 0 Z " fill="#59C4AA" transform="translate(534.375,1004.8125)"/>
<path d="M0 0 C0.598 0.227 1.196 0.454 1.812 0.688 C2.438 2.5 2.438 2.5 2.812 4.688 C2.483 5.183 2.483 5.183 0.812 7.688 C-0.837 7.357 -2.488 7.028 -4.188 6.688 C-4.875 4.875 -4.875 4.875 -5.188 2.688 C-3.585 0.241 -2.955 -0.422 0 0 Z " fill="#4FC1A4" transform="translate(283.1875,523.3125)"/>
<path d="M0 0 C0.598 0.206 1.196 0.413 1.812 0.625 C2.5 2.438 2.5 2.438 2.812 4.625 C1.625 6.438 1.625 6.438 -0.188 7.625 C-2.375 7.312 -2.375 7.312 -4.188 6.625 C-4.518 4.975 -4.847 3.325 -5.188 1.625 C-2.188 -0.375 -2.188 -0.375 0 0 Z " fill="#4CC0A3" transform="translate(210.1875,559.375)"/>
<path d="M0 0 C0.598 0.206 1.196 0.413 1.812 0.625 C2.5 2.438 2.5 2.438 2.812 4.625 C1.625 6.438 1.625 6.438 -0.188 7.625 C-2.375 7.312 -2.375 7.312 -4.188 6.625 C-4.518 4.975 -4.847 3.325 -5.188 1.625 C-2.188 -0.375 -2.188 -0.375 0 0 Z " fill="#4BBFA3" transform="translate(259.1875,503.375)"/>
<path d="M0 0 C2.625 0.375 2.625 0.375 5 1 C5.125 3.375 5.125 3.375 5 6 C4.34 6.66 3.68 7.32 3 8 C0.875 7.625 0.875 7.625 -1 7 C-1.625 4.625 -1.625 4.625 -2 2 C-1.34 1.34 -0.68 0.68 0 0 Z " fill="#47BEA0" transform="translate(232,560)"/>
<path d="M0 0 C0.598 0.227 1.196 0.454 1.812 0.688 C2.5 2.5 2.5 2.5 2.812 4.688 C1.625 6.5 1.625 6.5 -0.188 7.688 C-2.375 7.375 -2.375 7.375 -4.188 6.688 C-4.875 4.875 -4.875 4.875 -5.188 2.688 C-3.585 0.241 -2.955 -0.422 0 0 Z " fill="#48BEA1" transform="translate(223.1875,550.3125)"/>
<path d="M0 0 C0.33 1.65 0.66 3.3 1 5 C-1.375 6.062 -1.375 6.062 -4 7 C-4.66 6.67 -5.32 6.34 -6 6 C-6 4.02 -6 2.04 -6 0 C-3.509 -1.245 -2.589 -0.777 0 0 Z " fill="#47BEA0" transform="translate(212,541)"/>
<path d="M0 0 C1.32 0.66 2.64 1.32 4 2 C4 3.65 4 5.3 4 7 C-0.75 8.125 -0.75 8.125 -3 7 C-3.188 4.625 -3.188 4.625 -3 2 C-2.01 1.34 -1.02 0.68 0 0 Z " fill="#48BEA1" transform="translate(294,533)"/>
<path d="M0 0 C0.625 2.375 0.625 2.375 1 5 C0.34 5.66 -0.32 6.32 -1 7 C-3.625 6.625 -3.625 6.625 -6 6 C-7 3 -7 3 -6 0 C-3 -1 -3 -1 0 0 Z " fill="#46BEA0" transform="translate(260,523)"/>
<path d="M0 0 C0.33 1.65 0.66 3.3 1 5 C-1.375 6.062 -1.375 6.062 -4 7 C-4.66 6.67 -5.32 6.34 -6 6 C-6 4.02 -6 2.04 -6 0 C-3.509 -1.245 -2.589 -0.777 0 0 Z " fill="#47BEA1" transform="translate(298,515)"/>
<path d="M0 0 C0 1.98 0 3.96 0 6 C-2.375 6.625 -2.375 6.625 -5 7 C-5.66 6.34 -6.32 5.68 -7 5 C-6.75 2.438 -6.75 2.438 -6 0 C-3.509 -1.245 -2.589 -0.777 0 0 Z " fill="#48BEA1" transform="translate(273,514)"/>
<path d="M0 0 C2.5 0.125 2.5 0.125 3.5 1.125 C3.625 3.625 3.625 3.625 3.5 6.125 C2.5 7.125 2.5 7.125 0 7.25 C-2.5 7.125 -2.5 7.125 -3.5 6.125 C-3.625 3.625 -3.625 3.625 -3.5 1.125 C-2.5 0.125 -2.5 0.125 0 0 Z " fill="#47BEA0" transform="translate(197.5,510.875)"/>
<path d="M0 0 C2.625 0.375 2.625 0.375 5 1 C5.125 3.375 5.125 3.375 5 6 C4.34 6.66 3.68 7.32 3 8 C0.875 7.625 0.875 7.625 -1 7 C-1.625 4.625 -1.625 4.625 -2 2 C-1.34 1.34 -0.68 0.68 0 0 Z " fill="#46BEA0" transform="translate(281,504)"/>
<path d="M0 0 C1.32 0.66 2.64 1.32 4 2 C4 3.65 4 5.3 4 7 C-0.75 8.125 -0.75 8.125 -3 7 C-3.188 4.625 -3.188 4.625 -3 2 C-2.01 1.34 -1.02 0.68 0 0 Z " fill="#47BEA0" transform="translate(235,502)"/>
<path d="M0 0 C0.598 0.227 1.196 0.454 1.812 0.688 C2.5 2.5 2.5 2.5 2.812 4.688 C1.625 6.5 1.625 6.5 -0.188 7.688 C-2.375 7.375 -2.375 7.375 -4.188 6.688 C-4.875 4.875 -4.875 4.875 -5.188 2.688 C-3.585 0.241 -2.955 -0.422 0 0 Z " fill="#46BEA0" transform="translate(248.1875,493.3125)"/>
<path d="M0 0 C0.688 1.812 0.688 1.812 1 4 C-0.438 5.75 -0.438 5.75 -2 7 C-2.825 6.67 -2.825 6.67 -7 5 C-6.625 2.562 -6.625 2.562 -6 0 C-3.509 -1.245 -2.589 -0.777 0 0 Z " fill="#48BEA1" transform="translate(227,493)"/>
<path d="M0 0 C2.625 0.938 2.625 0.938 5 2 C4.67 3.65 4.34 5.3 4 7 C0.25 8.125 0.25 8.125 -2 7 C-2 5.02 -2 3.04 -2 1 C-1.34 0.67 -0.68 0.34 0 0 Z " fill="#48BEA1" transform="translate(235,483)"/>
<path d="M0 0 C1.98 0 3.96 0 6 0 C6.625 1.812 6.625 1.812 7 4 C6.67 4.495 6.67 4.495 5 7 C3.35 6.67 1.7 6.34 0 6 C-1.125 2.25 -1.125 2.25 0 0 Z " fill="#46BEA0" transform="translate(268,475)"/>
<path d="M0 0 C2.007 0.287 4.009 0.619 6 1 C6 2.65 6 4.3 6 6 C5.34 6.33 5.34 6.33 2 8 C1.01 7.34 0.02 6.68 -1 6 C-1.25 3.438 -1.25 3.438 -1 1 C-0.67 0.67 -0.34 0.34 0 0 Z " fill="#46BEA0" transform="translate(222,473)"/>
<path d="M0 0 C1.32 0.66 2.64 1.32 4 2 C3.67 3.65 3.34 5.3 3 7 C1.344 7.382 -0.325 7.714 -2 8 C-3 7 -3 7 -3.25 4.562 C-3.167 3.717 -3.085 2.871 -3 2 C-2.01 1.34 -1.02 0.68 0 0 Z " fill="#43BC9E" transform="translate(244,570)"/>
<path d="M0 0 C0 1.65 0 3.3 0 5 C-0.66 5.33 -0.66 5.33 -4 7 C-4.99 6.34 -5.98 5.68 -7 5 C-7.188 2.375 -7.188 2.375 -7 0 C-4.333 -1.333 -2.833 -0.671 0 0 Z " fill="#43BD9E" transform="translate(284,563)"/>
<path d="M0 0 C1.675 0.286 3.344 0.618 5 1 C5 2.98 5 4.96 5 7 C3.188 7.625 3.188 7.625 1 8 C0.01 7.34 -0.98 6.68 -2 6 C-1.125 1.125 -1.125 1.125 0 0 Z " fill="#43BC9E" transform="translate(254,561)"/>
<path d="M0 0 C0.598 0.227 1.196 0.454 1.812 0.688 C2.5 2.5 2.5 2.5 2.812 4.688 C1.625 6.5 1.625 6.5 -0.188 7.688 C-2.375 7.375 -2.375 7.375 -4.188 6.688 C-4.875 4.875 -4.875 4.875 -5.188 2.688 C-3.585 0.241 -2.955 -0.422 0 0 Z " fill="#43BC9E" transform="translate(269.1875,552.3125)"/>
<path d="M0 0 C0.598 0.227 1.196 0.454 1.812 0.688 C2.5 2.5 2.5 2.5 2.812 4.688 C1.625 6.5 1.625 6.5 -0.188 7.688 C-2.375 7.375 -2.375 7.375 -4.188 6.688 C-4.875 4.875 -4.875 4.875 -5.188 2.688 C-3.585 0.241 -2.955 -0.422 0 0 Z " fill="#43BD9E" transform="translate(246.1875,551.3125)"/>
<path d="M0 0 C0.99 0.33 1.98 0.66 3 1 C3.625 3.375 3.625 3.375 4 6 C3.34 6.66 2.68 7.32 2 8 C-0.625 7.625 -0.625 7.625 -3 7 C-3.33 6.01 -3.66 5.02 -4 4 C-2.68 2.68 -1.36 1.36 0 0 Z " fill="#42BC9E" transform="translate(281,542)"/>
<path d="M0 0 C2.007 0.287 4.009 0.619 6 1 C6.043 2.666 6.041 4.334 6 6 C5 7 5 7 2.5 7.125 C0 7 0 7 -1 6 C-1.125 3.5 -1.125 3.5 -1 1 C-0.67 0.67 -0.34 0.34 0 0 Z " fill="#42BC9E" transform="translate(254,542)"/>
<path d="M0 0 C0.598 0.227 1.196 0.454 1.812 0.688 C2.5 2.5 2.5 2.5 2.812 4.688 C1.625 6.5 1.625 6.5 -0.188 7.688 C-2.375 7.375 -2.375 7.375 -4.188 6.688 C-4.875 4.875 -4.875 4.875 -5.188 2.688 C-3.585 0.241 -2.955 -0.422 0 0 Z " fill="#43BD9E" transform="translate(235.1875,541.3125)"/>
<path d="M0 0 C0 1.65 0 3.3 0 5 C-0.66 5.33 -0.66 5.33 -4 7 C-4.99 6.34 -5.98 5.68 -7 5 C-7.188 2.375 -7.188 2.375 -7 0 C-4.333 -1.333 -2.833 -0.671 0 0 Z " fill="#42BC9E" transform="translate(226,532)"/>
<path d="M0 0 C1.675 0.286 3.344 0.618 5 1 C5 2.98 5 4.96 5 7 C3.188 7.625 3.188 7.625 1 8 C0.01 7.34 -0.98 6.68 -2 6 C-1.125 1.125 -1.125 1.125 0 0 Z " fill="#43BD9E" transform="translate(195,530)"/>
<path d="M0 0 C1.65 0.33 3.3 0.66 5 1 C6.125 4.75 6.125 4.75 5 7 C3.02 7 1.04 7 -1 7 C-1.625 5.188 -1.625 5.188 -2 3 C-1.34 2.01 -0.68 1.02 0 0 Z " fill="#43BC9E" transform="translate(208,521)"/>
<path d="M0 0 C0.598 0.227 1.196 0.454 1.812 0.688 C2.5 2.5 2.5 2.5 2.812 4.688 C1.625 6.5 1.625 6.5 -0.188 7.688 C-2.375 7.375 -2.375 7.375 -4.188 6.688 C-4.875 4.875 -4.875 4.875 -5.188 2.688 C-3.585 0.241 -2.955 -0.422 0 0 Z " fill="#43BD9F" transform="translate(199.1875,491.3125)"/>
<path d="M0 0 C2.125 0.938 2.125 0.938 4 2 C4 3.65 4 5.3 4 7 C1.625 7.625 1.625 7.625 -1 8 C-1.66 7.34 -2.32 6.68 -3 6 C-2.75 3.438 -2.75 3.438 -2 1 C-1.34 0.67 -0.68 0.34 0 0 Z " fill="#3FBB9C" transform="translate(267,571)"/>
<path d="M0 0 C1.65 0.33 3.3 0.66 5 1 C6.125 4.75 6.125 4.75 5 7 C3.35 7 1.7 7 0 7 C-0.66 5.68 -1.32 4.36 -2 3 C-1.34 2.01 -0.68 1.02 0 0 Z " fill="#3FBB9C" transform="translate(219,570)"/>
<path d="M0 0 C1.65 0 3.3 0 5 0 C5.66 1.32 6.32 2.64 7 4 C6.67 4.495 6.67 4.495 5 7 C3.35 6.67 1.7 6.34 0 6 C-1.125 2.25 -1.125 2.25 0 0 Z " fill="#3EBB9C" transform="translate(266,533)"/>
<path d="M0 0 C2.625 0.375 2.625 0.375 5 1 C5.043 2.666 5.041 4.334 5 6 C4 7 4 7 1.438 7.062 C1.035 7.052 1.035 7.052 -1 7 C-1.625 4.625 -1.625 4.625 -2 2 C-1.34 1.34 -0.68 0.68 0 0 Z " fill="#40BB9D" transform="translate(244,532)"/>
<path d="M0 0 C1.32 0.66 2.64 1.32 4 2 C3.67 3.65 3.34 5.3 3 7 C-0.75 8.125 -0.75 8.125 -3 7 C-3.188 4.625 -3.188 4.625 -3 2 C-2.01 1.34 -1.02 0.68 0 0 Z " fill="#3FBB9C" transform="translate(246,512)"/>
<path d="M0 0 C2.625 -0.188 2.625 -0.188 5 0 C5.625 2.375 5.625 2.375 6 5 C5.34 5.66 4.68 6.32 4 7 C1.375 6.625 1.375 6.625 -1 6 C-1.33 5.01 -1.66 4.02 -2 3 C-1.34 2.01 -0.68 1.02 0 0 Z " fill="#3FBB9C" transform="translate(221,512)"/>
<path d="M0 0 C1.65 0 3.3 0 5 0 C5.66 1.32 6.32 2.64 7 4 C6.67 4.495 6.67 4.495 5 7 C3.35 6.67 1.7 6.34 0 6 C-1.125 2.25 -1.125 2.25 0 0 Z " fill="#3EBB9C" transform="translate(208,502)"/>
<path d="M0 0 C2.625 0.375 2.625 0.375 5 1 C5.625 2.875 5.625 2.875 6 5 C5.34 5.66 4.68 6.32 4 7 C1.375 6.625 1.375 6.625 -1 6 C-1.625 4.125 -1.625 4.125 -2 2 C-1.34 1.34 -0.68 0.68 0 0 Z " fill="#3EBB9C" transform="translate(294,495)"/>
<path d="M0 0 C1.65 0.33 3.3 0.66 5 1 C6.125 4.75 6.125 4.75 5 7 C3.35 7 1.7 7 0 7 C-0.66 5.68 -1.32 4.36 -2 3 C-1.34 2.01 -0.68 1.02 0 0 Z " fill="#3EBB9C" transform="translate(268,494)"/>
<path d="M0 0 C2.188 0.312 2.188 0.312 4 1 C4.688 2.812 4.688 2.812 5 5 C3.562 6.75 3.562 6.75 2 8 C0.062 7.188 0.062 7.188 -2 6 C-2.33 5.01 -2.66 4.02 -3 3 C-1.75 1.438 -1.75 1.438 0 0 Z " fill="#3FBB9D" transform="translate(282,485)"/>
<path d="M0 0 C0.33 1.65 0.66 3.3 1 5 C0.34 5.33 0.34 5.33 -3 7 C-3.99 6.34 -4.98 5.68 -6 5 C-6.188 2.375 -6.188 2.375 -6 0 C-3.509 -1.245 -2.589 -0.777 0 0 Z " fill="#3FBB9C" transform="translate(261,485)"/>
<path d="M0 0 C1.32 0.66 2.64 1.32 4 2 C3.67 3.65 3.34 5.3 3 7 C-0.75 8.125 -0.75 8.125 -3 7 C-3.188 4.625 -3.188 4.625 -3 2 C-2.01 1.34 -1.02 0.68 0 0 Z " fill="#3FBB9C" transform="translate(211,482)"/>
<path d="M0 0 C1.65 0 3.3 0 5 0 C5.66 1.32 6.32 2.64 7 4 C6.67 4.495 6.67 4.495 5 7 C3.35 6.67 1.7 6.34 0 6 C-1.125 2.25 -1.125 2.25 0 0 Z " fill="#3FBB9C" transform="translate(245,474)"/>
<path d="M0 0 C2.625 0.375 2.625 0.375 5 1 C5.33 1.99 5.66 2.98 6 4 C5.67 4.495 5.67 4.495 4 7 C2.35 6.67 0.7 6.34 -1 6 C-1.625 4.125 -1.625 4.125 -2 2 C-1.34 1.34 -0.68 0.68 0 0 Z " fill="#3AB99A" transform="translate(233,522)"/>
<path d="M0 0 C0.66 0.33 1.32 0.66 2 1 C-2.95 5.95 -7.9 10.9 -13 16 C-13 11.089 -9.305 8.39 -6 5 C-4.054 3.235 -2.073 1.618 0 0 Z " fill="#55C3A7" transform="translate(47,221)"/>
<path d="M0 0 C1.538 3.075 0.366 5.347 -0.438 8.625 C-0.725 9.814 -1.012 11.002 -1.309 12.227 C-1.537 13.142 -1.765 14.057 -2 15 C-3.574 13.289 -3.574 13.289 -5 11 C-4.707 8.711 -4.707 8.711 -3.812 6.375 C-3.53 5.599 -3.248 4.823 -2.957 4.023 C-2 2 -2 2 0 0 Z " fill="#79D0BA" transform="translate(189,496)"/>
<path d="M0 0 C4.143 0.598 7.182 2.007 10.812 4.062 C11.788 4.61 12.764 5.158 13.77 5.723 C14.506 6.144 15.242 6.566 16 7 C15.34 7.33 15.34 7.33 12 9 C11.319 8.423 10.639 7.845 9.938 7.25 C6.741 4.802 3.525 2.935 0 1 C0 0.67 0 0.34 0 0 Z " fill="#76CFB8" transform="translate(277,465)"/>
<path d="M0 0 C1.32 0.33 2.64 0.66 4 1 C3.457 1.471 2.915 1.941 2.355 2.426 C1.998 2.737 1.998 2.737 0.188 4.312 C-0.52 4.927 -1.228 5.542 -1.957 6.176 C-3.701 7.733 -5.368 9.327 -7 11 C-7.66 10.67 -8.32 10.34 -9 10 C-6.03 6.7 -3.06 3.4 0 0 Z " fill="#74CEB7" transform="translate(280,580)"/>
<path d="M0 0 C0.33 0 0.66 0 1 0 C1.365 1.581 1.717 3.165 2.062 4.75 C2.26 5.632 2.457 6.513 2.66 7.422 C2.998 9.987 2.812 11.571 2 14 C1.328 12.711 0.663 11.419 0 10.125 C-0.371 9.406 -0.743 8.686 -1.125 7.945 C-2 6 -2 6 -2 4 C-1.34 4 -0.68 4 0 4 C0 2.68 0 1.36 0 0 Z " fill="#7CD1BB" transform="translate(186,528)"/>
<path d="M0 0 C4 1.333 4.838 3.496 7 7 C5.35 7 3.7 7 2 7 C0.539 4.353 0 3.106 0 0 Z " fill="#61C7AE" transform="translate(524,1038)"/>
<path d="M0 0 C1.98 0 3.96 0 6 0 C6 0.99 6 1.98 6 3 C3.69 2.67 1.38 2.34 -1 2 C-0.67 1.34 -0.34 0.68 0 0 Z " fill="#6CCBB3" transform="translate(546,1012)"/>
</svg>
